{"title":"MSU_Purdue_Second_Half_480p_20110311_TTL","uid":6238332,"size":1225932135,"categoryP":"video","categoryS":"tv_shows","magnet":"?xt=urn:btih:7ed799a8d35c186e90151c09a8228b56ff62fad5&amp;dn=MSU_Purdue_Second_Half_480p_20110311_TTL&amp;tr=udp%3A%2F%2Ftracker.openbittorrent.com%3A80&amp;tr=udp%3A%2F%2Fopen.demonii.com%3A1337&amp;tr=udp%3A%2F%2Ftracker.coppersurfer.tk%3A6969&amp;tr=udp%3A%2F%2Fexodus.desync.com%3A6969","seeders":0,"leechers":0,"uploader":"thetorrentlord","files":2,"time":1299958136,"description":"This is from a SD broadcast.  Enjoy and please share.\t\t\t\t\t\t\t\n\n\t\t\t\t\t\t\t\t\t\t\t\t\t\n\n\t\t\t\t\t\t\t\t\t\t\t\t\t\n\n\t\t\t\t\t\t\t\t\t\t\t\t\t\n\n\t\t\t\t\t\t\t\t\t\t\t\t\t\n\n******************************************************************************************************\n\n******************************************************************************************************\t\n\n\t\t\t\t\t\t\t\t\t\t\t\t\t\n\n\t\t\t\t\t\t\t\t\t\t\t\t\t\n\n\t\t\t\t\t\t\t\t\t\t\t\t\t\n\n\t\t\t\t\t\t\t\n\nMSU_Purdue_Second_Half_480p_20110311_TTL.avi\nFormat                           : AVI\nFormat/Info                      : Audio Video Interleave\nFormat profile                   : OpenDML\nFile size                        : 1.14 GiB\nDuration                         : 2h 3mn\nOverall bit rate                 : 1 321 Kbps\nMovie name                       : MSU_Purdue_Second_Half_480p_20110311_TTL.mpg\nDirector                         : created.with.SUPER(C).v2010.bld.37\nWriting application              : SUPER(C)   \n\nVideo\nID                               : 0\nFormat                           : MPEG-4 Visual\nFormat profile                   : Simple@L3\nFormat settings, BVOP            : No\nFormat settings, QPel            : No\nFormat settings, GMC             : No warppoints\nFormat settings, Matrix          : Default (H.263)\nCodec ID                         : XVID\nCodec ID/Hint                    : XviD\nDuration                         : 2h 3mn\nBit rate                         : 1 265 Kbps\nWidth                            : 624 pixels\nHeight                           : 352 pixels\nDisplay aspect ratio             : 16:9\nFrame rate                       : 29.970 fps\nResolution                       : 8 bits\nColorimetry                      : 4:2:0\nScan type                        : Progressive\nBits/(Pixel*Frame)               : 0.192\nStream size                      : 1.09 GiB (96%)\nWriting library                  : XviD 1.1.2 (UTC 2006-11-01)\n\nAudio\nID                               : 1\nFormat                           : MPEG Audio\nFormat version                   : Version 2\nFormat profile                   : Layer 3\nMode                             : Joint stereo\nFormat_Settings_ModeExtension    : MS Stereo\nCodec ID                         : 55\nCodec ID/Hint                    : MP3\nDuration                         : 1h 48mn\nBit rate mode                    : Constant\nBit rate                         : 112 Kbps\nChannel(s)                       : 2 channels\nSampling rate                    : 22.05 KHz\nStream size                      : 43.5 MiB (4%)\nAlignment                        : Aligned on interleaves\nInterleave, duration             : 26 ms (0.78 video frame)\nInterleave, preload duration     : 26 ms\nWriting library                  : LAME3.98\n\n\n\n\n\n\n","torrent":{"xt":"urn:btih:7ed799a8d35c186e90151c09a8228b56ff62fad5","amp;dn":"MSU_Purdue_Second_Half_480p_20110311_TTL","amp;tr":["udp%3A%2F%2Ftracker.openbittorrent.com%3A80","udp%3A%2F%2Fopen.demonii.com%3A1337","udp%3A%2F%2Ftracker.coppersurfer.tk%3A6969","udp%3A%2F%2Fexodus.desync.com%3A6969"],"infoHash":"7ed799a8d35c186e90151c09a8228b56ff62fad5","infoHashBuffer":{"type":"Buffer","data":[126,215,153,168,211,92,24,110,144,21,28,9,168,34,139,86,255,98,250,213]},"announce":[],"urlList":[]}}